{
  "accessors": [
    {
      "bufferView": 2,
      "componentType": 5126,
      "count": 3446,
      "max": [
        12.589485168457031,
        2.7722558975219727,
        1.0298869609832764
      ],
      "min": [
        -14.638021469116211,
        -5.949641227722168,
        -4.089754104614258
      ],
      "type": "VEC3"
    },
    {
      "bufferView": 2,
      "byteOffset": 41352,
      "componentType": 5126,
      "count": 3446,
      "max": [
        0.9999287724494934,
        0.9999555349349976,
        0.9996706247329712
      ],
      "min": [
        -0.9998912215232849,
        -0.9981335401535034,
        -0.9986373782157898
      ],
      "type": "VEC3"
    },
    {
      "bufferView": 1,
      "componentType": 5126,
      "count": 3446,
      "max": [
        0.980364978313446,
        0.9930930137634277
      ],
      "min": [
        0.00916100014001131,
        0.012558000162243843
      ],
      "type": "VEC2"
    },
    {
      "bufferView": 0,
      "componentType": 5125,
      "count": 18078,
      "type": "SCALAR"
    },
    {
      "bufferView": 2,
      "byteOffset": 82704,
      "componentType": 5126,
      "count": 2942,
      "max": [
        12.65383529663086,
        22.344900131225586,
        1.5471149682998657
      ],
      "min": [
        -14.287567138671875,
        -8.317197799682617,
        -4.439274787902832
      ],
      "type": "VEC3"
    },
    {
      "bufferView": 2,
      "byteOffset": 118008,
      "componentType": 5126,
      "count": 2942,
      "max": [
        0.9999323487281799,
        0.5928081274032593,
        0.9994000196456909
      ],
      "min": [
        -0.9999832510948181,
        -0.9967447519302368,
        -0.9998852610588074
      ],
      "type": "VEC3"
    },
    {
      "bufferView": 1,
      "byteOffset": 27568,
      "componentType": 5126,
      "count": 2942,
      "max": [
        0.988785982131958,
        0.9870200157165527
      ],
      "min": [
        0.017968999221920967,
        0.021143000572919846
      ],
      "type": "VEC2"
    },
    {
      "bufferView": 0,
      "byteOffset": 72312,
      "componentType": 5125,
      "count": 14964,
      "type": "SCALAR"
    }
  ],
  "asset": {
    "extras": {
      "author": "epal (https://sketchfab.com/epal)",
      "license": "CC-BY-4.0 (http://creativecommons.org/licenses/by/4.0/)",
      "source": "https://sketchfab.com/3d-models/hand-cs-go-96f0ea0d312b438ea115663b282afdfb",
      "title": "Hand cs go"
    },
    "generator": "Sketchfab-12.66.0",
    "version": "2.0"
  },
  "bufferViews": [
    {
      "buffer": 0,
      "byteLength": 132168,
      "name": "floatBufferViews",
      "target": 34963
    },
    {
      "buffer": 0,
      "byteLength": 51104,
      "byteOffset": 132168,
      "byteStride": 8,
      "name": "floatBufferViews",
      "target": 34962
    },
    {
      "buffer": 0,
      "byteLength": 153312,
      "byteOffset": 183272,
      "byteStride": 12,
      "name": "floatBufferViews",
      "target": 34962
    }
  ],
  "buffers": [
    {
      "byteLength": 336584,
      "uri": "scene.bin"
    }
  ],
  "images": [
    {
      "uri": "textures/modelsweaponsv_modelsarmst_baseColor.png"
    },
    {
      "uri": "textures/modelsweaponsv_modelsarmsv_baseColor.png"
    }
  ],
  "materials": [
    {
      "doubleSided": true,
      "name": "modelsweaponsv_modelsarmst",
      "pbrMetallicRoughness": {
        "baseColorTexture": {
          "index": 0
        },
        "metallicFactor": 0.0,
        "roughnessFactor": 0.6
      }
    },
    {
      "doubleSided": true,
      "name": "modelsweaponsv_modelsarmsv",
      "pbrMetallicRoughness": {
        "baseColorTexture": {
          "index": 1
        },
        "metallicFactor": 0.0,
        "roughnessFactor": 0.6
      }
    }
  ],
  "meshes": [
    {
      "name": "Object_0",
      "primitives": [
        {
          "attributes": {
            "NORMAL": 1,
            "POSITION": 0,
            "TEXCOORD_0": 2
          },
          "indices": 3,
          "material": 0,
          "mode": 4
        }
      ]
    },
    {
      "name": "Object_1",
      "primitives": [
        {
          "attributes": {
            "NORMAL": 5,
            "POSITION": 4,
            "TEXCOORD_0": 6
          },
          "indices": 7,
          "material": 1,
          "mode": 4
        }
      ]
    }
  ],
  "nodes": [
    {
      "children": [
        1
      ],
      "matrix": [
        1.0,
        0.0,
        0.0,
        0.0,
        0.0,
        2.220446049250313e-16,
        -1.0,
        0.0,
        0.0,
        1.0,
        2.220446049250313e-16,
        0.0,
        0.0,
        0.0,
        0.0,
        1.0
      ],
      "name": "Sketchfab_model"
    },
    {
      "children": [
        2,
        3
      ],
      "name": "rence.obj.cleaner.gles"
    },
    {
      "mesh": 0,
      "name": "Object_2"
    },
    {
      "mesh": 1,
      "name": "Object_3"
    }
  ],
  "samplers": [
    {
      "magFilter": 9729,
      "minFilter": 9987,
      "wrapS": 10497,
      "wrapT": 10497
    }
  ],
  "scene": 0,
  "scenes": [
    {
      "name": "Sketchfab_Scene",
      "nodes": [
        0
      ]
    }
  ],
  "textures": [
    {
      "sampler": 0,
      "source": 0
    },
    {
      "sampler": 0,
      "source": 1
    }
  ]
}
