{
  "accessors": [
    {
      "bufferView": 2,
      "componentType": 5126,
      "count": 1956,
      "max": [
        1.7157164812088013,
        0.17405636608600616,
        0.16953150928020477
      ],
      "min": [
        0.4672205150127411,
        -0.1786963939666748,
        -0.18322129547595978
      ],
      "type": "VEC3"
    },
    {
      "bufferView": 2,
      "byteOffset": 23472,
      "componentType": 5126,
      "count": 1956,
      "max": [
        1.0,
        1.0,
        1.0
      ],
      "min": [
        -1.0,
        -1.0,
        -1.0
      ],
      "type": "VEC3"
    },
    {
      "bufferView": 3,
      "componentType": 5126,
      "count": 1956,
      "max": [
        1.0,
        0.6113029718399048,
        1.0,
        1.0
      ],
      "min": [
        -0.006989146117120981,
        -0.5527290105819702,
        -0.3793764114379883,
        1.0
      ],
      "type": "VEC4"
    },
    {
      "bufferView": 1,
      "componentType": 5126,
      "count": 1956,
      "max": [
        0.990102231502533,
        0.9937548637390137
      ],
      "min": [
        0.00390625,
        0.00390625
      ],
      "type": "VEC2"
    },
    {
      "bufferView": 0,
      "componentType": 5125,
      "count": 5355,
      "type": "SCALAR"
    },
    {
      "bufferView": 2,
      "byteOffset": 46944,
      "componentType": 5126,
      "count": 2401,
      "max": [
        1.7589657306671143,
        0.2392963171005249,
        0.13687053322792053
      ],
      "min": [
        -2.0478134155273438,
        -0.24848422408103943,
        -0.14230766892433167
      ],
      "type": "VEC3"
    },
    {
      "bufferView": 2,
      "byteOffset": 75756,
      "componentType": 5126,
      "count": 2401,
      "max": [
        1.0,
        1.0,
        1.0
      ],
      "min": [
        -1.0,
        -1.0,
        -1.0
      ],
      "type": "VEC3"
    },
    {
      "bufferView": 3,
      "byteOffset": 31296,
      "componentType": 5126,
      "count": 2401,
      "max": [
        1.0,
        0.6952375769615173,
        1.0,
        1.0
      ],
      "min": [
        -0.4885554313659668,
        -0.7251704335212708,
        -0.2720257043838501,
        -1.0
      ],
      "type": "VEC4"
    },
    {
      "bufferView": 1,
      "byteOffset": 15648,
      "componentType": 5126,
      "count": 2401,
      "max": [
        0.9918754696846008,
        0.9930101633071899
      ],
      "min": [
        0.00390625,
        0.00390625
      ],
      "type": "VEC2"
    },
    {
      "bufferView": 0,
      "byteOffset": 21420,
      "componentType": 5125,
      "count": 5853,
      "type": "SCALAR"
    },
    {
      "bufferView": 2,
      "byteOffset": 104568,
      "componentType": 5126,
      "count": 693,
      "max": [
        0.47297030687332153,
        0.5440859198570251,
        0.19782654941082
      ],
      "min": [
        0.40635454654693604,
        -0.6270243525505066,
        -0.20013688504695892
      ],
      "type": "VEC3"
    },
    {
      "bufferView": 2,
      "byteOffset": 112884,
      "componentType": 5126,
      "count": 693,
      "max": [
        1.0,
        0.9995852112770081,
        0.999987006187439
      ],
      "min": [
        -1.0,
        -0.9996253252029419,
        -0.999987006187439
      ],
      "type": "VEC3"
    },
    {
      "bufferView": 3,
      "byteOffset": 69712,
      "componentType": 5126,
      "count": 693,
      "max": [
        0.9999995231628418,
        0.999694287776947,
        1.0,
        1.0
      ],
      "min": [
        -0.0637645572423935,
        -0.9973559975624084,
        -0.9610881209373474,
        1.0
      ],
      "type": "VEC4"
    },
    {
      "bufferView": 1,
      "byteOffset": 34856,
      "componentType": 5126,
      "count": 693,
      "max": [
        0.9423922300338745,
        0.9829424023628235
      ],
      "min": [
        0.00390625,
        0.00390625
      ],
      "type": "VEC2"
    },
    {
      "bufferView": 0,
      "byteOffset": 44832,
      "componentType": 5125,
      "count": 2280,
      "type": "SCALAR"
    }
  ],
  "asset": {
    "extras": {
      "author": "ThomasE (https://sketchfab.com/ThomasEs)",
      "license": "CC-BY-4.0 (http://creativecommons.org/licenses/by/4.0/)",
      "source": "https://sketchfab.com/3d-models/m9-bayonet-knife-6d6d3163afc8428b8a212d347ce01f39",
      "title": "M9 Bayonet Knife"
    },
    "generator": "Sketchfab-15.19.0",
    "version": "2.0"
  },
  "bufferViews": [
    {
      "buffer": 0,
      "byteLength": 53952,
      "name": "floatBufferViews",
      "target": 34963
    },
    {
      "buffer": 0,
      "byteLength": 40400,
      "byteOffset": 53952,
      "byteStride": 8,
      "name": "floatBufferViews",
      "target": 34962
    },
    {
      "buffer": 0,
      "byteLength": 121200,
      "byteOffset": 94352,
      "byteStride": 12,
      "name": "floatBufferViews",
      "target": 34962
    },
    {
      "buffer": 0,
      "byteLength": 80800,
      "byteOffset": 215552,
      "byteStride": 16,
      "name": "floatBufferViews",
      "target": 34962
    }
  ],
  "buffers": [
    {
      "byteLength": 296352,
      "uri": "scene.bin"
    }
  ],
  "images": [
    {
      "uri": "textures/Material.010_baseColor.png"
    },
    {
      "uri": "textures/Material.010_metallicRoughness.png"
    },
    {
      "uri": "textures/Material.010_normal.png"
    },
    {
      "uri": "textures/Material.012_baseColor.png"
    },
    {
      "uri": "textures/Material.012_metallicRoughness.png"
    },
    {
      "uri": "textures/Material.012_normal.png"
    },
    {
      "uri": "textures/Material.011_baseColor.png"
    },
    {
      "uri": "textures/Material.011_metallicRoughness.png"
    },
    {
      "uri": "textures/Material.011_normal.png"
    }
  ],
  "materials": [
    {
      "doubleSided": true,
      "name": "Material.010",
      "normalTexture": {
        "index": 2
      },
      "pbrMetallicRoughness": {
        "baseColorTexture": {
          "index": 0
        },
        "metallicRoughnessTexture": {
          "index": 1
        }
      }
    },
    {
      "doubleSided": true,
      "name": "Material.012",
      "normalTexture": {
        "index": 5
      },
      "pbrMetallicRoughness": {
        "baseColorTexture": {
          "index": 3
        },
        "metallicRoughnessTexture": {
          "index": 4
        }
      }
    },
    {
      "doubleSided": true,
      "name": "Material.011",
      "normalTexture": {
        "index": 8
      },
      "pbrMetallicRoughness": {
        "baseColorTexture": {
          "index": 6
        },
        "metallicRoughnessTexture": {
          "index": 7
        }
      }
    }
  ],
  "meshes": [
    {
      "name": "Knife-Low_Material.010_0",
      "primitives": [
        {
          "attributes": {
            "NORMAL": 1,
            "POSITION": 0,
            "TANGENT": 2,
            "TEXCOORD_0": 3
          },
          "indices": 4,
          "material": 0,
          "mode": 4
        }
      ]
    },
    {
      "name": "Knife-Low_Material.012_0",
      "primitives": [
        {
          "attributes": {
            "NORMAL": 6,
            "POSITION": 5,
            "TANGENT": 7,
            "TEXCOORD_0": 8
          },
          "indices": 9,
          "material": 1,
          "mode": 4
        }
      ]
    },
    {
      "name": "Knife-Low_Material.011_0",
      "primitives": [
        {
          "attributes": {
            "NORMAL": 11,
            "POSITION": 10,
            "TANGENT": 12,
            "TEXCOORD_0": 13
          },
          "indices": 14,
          "material": 2,
          "mode": 4
        }
      ]
    }
  ],
  "nodes": [
    {
      "children": [
        1
      ],
      "matrix": [
        -1.0,
        -6.123234262925839e-17,
        -1.3596311327747833e-32,
        0.0,
        6.123234262925839e-17,
        -1.0,
        -6.661338147750939e-16,
        0.0,
        2.465190328815662e-32,
        -4.440892098500626e-16,
        1.0,
        0.0,
        0.0,
        0.0,
        0.0,
        1.0
      ],
      "name": "Sketchfab_model"
    },
    {
      "children": [
        2
      ],
      "matrix": [
        0.009999999776482582,
        0.0,
        0.0,
        0.0,
        0.0,
        0.0,
        0.009999999776482582,
        0.0,
        0.0,
        -0.009999999776482582,
        0.0,
        0.0,
        0.0,
        0.0,
        0.0,
        1.0
      ],
      "name": "736534af968e41faaecfe88d82866a2b.fbx"
    },
    {
      "children": [
        3
      ],
      "name": "RootNode"
    },
    {
      "children": [
        4,
        5,
        6
      ],
      "matrix": [
        100.0,
        0.0,
        0.0,
        0.0,
        -0.0,
        -2.8212996916465727e-05,
        -99.99999999999602,
        0.0,
        0.0,
        99.99999999999602,
        -2.8212996916465727e-05,
        0.0,
        -42.045772552490234,
        0.0,
        -5.166294097900391,
        1.0
      ],
      "name": "Knife-Low"
    },
    {
      "mesh": 0,
      "name": "Knife-Low_Material.010_0"
    },
    {
      "mesh": 1,
      "name": "Knife-Low_Material.012_0"
    },
    {
      "mesh": 2,
      "name": "Knife-Low_Material.011_0"
    }
  ],
  "samplers": [
    {
      "magFilter": 9729,
      "minFilter": 9987,
      "wrapS": 10497,
      "wrapT": 10497
    }
  ],
  "scene": 0,
  "scenes": [
    {
      "name": "Sketchfab_Scene",
      "nodes": [
        0
      ]
    }
  ],
  "textures": [
    {
      "sampler": 0,
      "source": 0
    },
    {
      "sampler": 0,
      "source": 1
    },
    {
      "sampler": 0,
      "source": 2
    },
    {
      "sampler": 0,
      "source": 3
    },
    {
      "sampler": 0,
      "source": 4
    },
    {
      "sampler": 0,
      "source": 5
    },
    {
      "sampler": 0,
      "source": 6
    },
    {
      "sampler": 0,
      "source": 7
    },
    {
      "sampler": 0,
      "source": 8
    }
  ]
}
